<?xml version="1.0" standalone="no"?><!DOCTYPE svg PUBLIC "-//W3C//DTD SVG 1.1//EN" "http://www.w3.org/Graphics/SVG/1.1/DTD/svg11.dtd"><svg t="1577341939368" class="icon" viewBox="0 0 1448 1024" version="1.1" xmlns="http://www.w3.org/2000/svg" p-id="5166" xmlns:xlink="http://www.w3.org/1999/xlink" width="181" height="128"><defs><style type="text/css"></style></defs><path d="M856.77131509 163.585c-30.618-22.877-68.117-36.295-108.36799999-39.047l-3.957-0.344v33.715l3.43999999 0.344c64.678 5.332 119.378 45.584 142.77200002 104.757l1.20399999 2.924 33.54299999-7.053-1.37599998-3.956c-13.417-37.155-36.64-68.634-67.25800002-91.34z m47.47600001 163.242c0 8.945 8.601 17.545 17.54599999 17.545 10.32 0 17.545-7.224 17.54500002-17.545 0-10.321-7.224-17.546-17.54500002-17.546-10.837-0.172-17.546 8.945-17.54599999 17.546z" p-id="5167" fill="#999999"></path><path d="M958.08831511 541.5c55.044-57.624 85.49-133.827 85.48999998-214.845 0-171.326-138.815-310.658-309.27999999-310.658s-309.454 139.504-309.45399999 310.83c0 59 16.857 116.453 48.67999999 166.165 29.242 45.584 69.838 82.911 117.83 108.197-160.318 54.7-276.6 197.128-297.069 365.358-1.376 4.645-1.376 8.945-1.37600001 13.245 0 17.202 11.009 28.727 27.35000001 28.727 18.062 0 32.683-13.417 32.85500001-29.93 20.986-195.237 184.915-342.48 381.183-342.48h14.10599999c80.158-3.441 154.64-36.984 209.68500001-94.609z m25.28599998-214.673c0 137.44-111.81 249.248-249.24899999 249.248S484.8773151 464.266 484.8773151 326.827 596.68631509 77.578 734.1253151 77.578s249.249 111.81 249.24899999 249.249z m193.00000002 647.633c-0.344-1.72-0.688-3.612-0.68800001-7.225v-0.516c-6.881-57.108-24.426-111.465-52.293-161.693-27.178-48.852-62.785-91.511-105.788-126.774-13.245-13.245-20.986-14.794-35.09099999-17.546-7.74-1.376-15.654 0.86-22.19 6.193-7.053 5.848-11.353 14.793-11.35300001 23.738 0 4.3 3.096 8.944 7.225 14.793 0.688 0.86 1.204 1.72 1.72 2.58l0.34400001 0.516 0.51599999 0.344c92.027 66.742 150.684 164.962 161.005 269.546 0 18.922 11.869 31.307 30.10199999 31.307 16.514 0 27.35-11.87 27.35000001-30.103-0.343-2.064-0.687-3.612-0.86-5.16z" p-id="5168" fill="#999999"></path></svg>