<?xml version="1.0" standalone="no"?><!DOCTYPE svg PUBLIC "-//W3C//DTD SVG 1.1//EN" "http://www.w3.org/Graphics/SVG/1.1/DTD/svg11.dtd"><svg t="1566196111827" class="icon" viewBox="0 0 1025 1024" version="1.1" xmlns="http://www.w3.org/2000/svg" p-id="1865" xmlns:xlink="http://www.w3.org/1999/xlink" width="200.1953125" height="200"><defs><style type="text/css"></style></defs><path d="M1001.299335 356.709763A36.439976 36.439976 0 0 0 943.999373 338.999775a36.379976 36.379976 0 0 0-12.139992 39.599974A438.999708 438.999708 0 0 1 952.479367 511.99966c0 242.599839-196.699869 439.199708-439.199708 439.199708a437.10971 437.10971 0 0 1-245.389837-74.92995l19.299987-0.1A35.999976 35.999976 0 0 0 322.999786 839.999442a35.999976 35.999976 0 0 0-36.159976-35.909976l-116.529923 0.48a11.999992 11.999992 0 0 0-11.999992 11.999992l0.5 122.769918A30.67998 30.67998 0 0 0 189.649874 969.999356h10.619993a30.67998 30.67998 0 0 0 30.57998-30.82998A509.619662 509.619662 0 0 0 512.43966 1023.99932c281.839813 0.45 510.199661-225.29985 512.819659-507.129663a511.85966 511.85966 0 0 0-23.959984-160.159894zM74.079951 511.99966c0-242.599839 196.599869-439.199708 439.199708-439.199708a437.17971 437.17971 0 0 1 246.159837 75.39995l-10.889993 0.05a35.999976 35.999976 0 0 0-35.839976 36.119976 35.999976 35.999976 0 0 0 36.159976 35.909976l116.529922-0.48a11.999992 11.999992 0 0 0 11.999992-11.999992l-0.479999-117.469922a35.999976 35.999976 0 0 0-36.089976-35.839976 35.999976 35.999976 0 0 0-35.879977 36.159976v0.539999A509.449662 509.449662 0 0 0 522.819653 0.09C235.909843-5.159997 1.539999 224.589851 1.279999 511.53966a511.52966 511.52966 0 0 0 26.239983 162.699892 36.339976 36.339976 0 0 0 56.999962 16.999989l0.1-0.08a36.489976 36.489976 0 0 0 11.899992-40.229973A438.659709 438.659709 0 0 1 74.079951 511.99966z" fill="#C0CBD9" p-id="1866"></path><path d="M455.649697 659.399562q5.079997 9.729994 4.869997 15.23999t-6.999995 10.579993q-13.549991 9.729994-21.999986-6.349996-9.309994-17.359988-18.829987-31.999979T389.999741 614.999592a222.559852 222.559852 0 0 1-18.999987 47.189968A267.179823 267.179823 0 0 1 342.639772 702.999533q-8.469994 10.159993-15.239989 11.219993t-13.119992-6.139996q-5.509996-6.349996-3.599997-12.909992T322.329786 677.99955a197.209869 197.209869 0 0 0 26.879982-37.459975q10.789993-19.679987 17.139989-49.729967t9.099994-75.54995q2.749998-45.48997 2.749998-114.909924 0-13.539991 2.999998-17.999988t11.429992-4.439997q8.889994 0 12.059992 4.439997t3.169998 16.719989q0 63.909958-2.539998 108.779928t-7.999995 77.449948q5.919996-1.689999 14.80999 8.469995 5.919996 7.619995 12.269992 16.299989t12.269992 17.559988q5.919996 8.889994 10.789993 17.139989t8.189994 14.62999z m2.999998-75.33995q0 16.089989-15.239989 16.079989-14.81999 0-14.809991-16.079989V370.319754q0-6.349996-7.619995-6.349996H359.999761q-6.349996 0-6.349996 6.349996v213.739858q0 16.089989-15.23999 16.079989-7.199995 0-11.219992-3.809997t-3.999998-12.269992v-217.999855q0-19.459987 6.349996-26.659982t23.279985-7.199996h75.33995q16.919989 0 23.699984 7.409995t6.769995 26.449983z m80.839947-104.99993a41.999972 41.999972 0 0 1-3.809998-7.999995q-2.999998-6.349996-5.079996-10.999993t-4.439997-9.309993q-2.329998-4.649997-4.869997-9.949994t-6.349996-12.489991Q508.999662 417.729723 509.999661 411.799727t8.249995-10.159994q7.999995-5.079997 13.999991-2.999998t11.849992 13.119992q7.619995 14.39999 12.269992 24.339983t9.309993 20.999986q6.769996 15.23999 2.539999 21.999986h34.709977q8.459994-14.37999 16.079989-30.25998t14.80999-33.649978q4.649997-10.159993 9.949993-13.119991t13.329992 0a17.999988 17.999988 0 0 1 9.519993 8.249995q3.589998 6.139996-2.329998 18.829987-5.929996 13.119991-12.059992 25.999983t-12.039992 23.949984h59.259961q7.619995 0 12.269991 4.439997t4.659997 12.059992q0 7.999995-4.869996 11.849992a18.999987 18.999987 0 0 1-12.059992 3.809997H475.999684q-15.65999 0-15.65999-15.659989 0-7.619995 3.809998-12.059992T475.999684 479.099682z m29.19998-122.739919l-7.999994-16.079989q-5.929996-9.729994-4.659997-15.869989t8.469994-11.219993A16.469989 16.469989 0 0 1 577.999616 309.999794q7.189995 1.489999 12.699992 12.489992 3.379998 7.199995 6.999995 15.23999t7.409995 18.619987h81.689946q7.619995 0 12.269992 4.439997t4.659997 12.059992q0 7.999995-4.869997 11.849993a18.999987 18.999987 0 0 1-12.059992 3.809997H488.659675q-15.65999 0-15.659989-15.65999 0-7.619995 3.809997-12.059992t11.849992-4.439997zM680.399548 661.93956a95.779936 95.779936 0 0 1-1.689999 19.679987 25.459983 25.459983 0 0 1-6.139996 12.489992 24.409984 24.409984 0 0 1-12.059992 6.559996q-7.619995 1.899999-19.889986 1.899998H532.259647a93.149938 93.149938 0 0 1-19.259988-1.689998q-7.839995-1.699999-12.269992-6.139996t-6.349995-12.269992q-1.899999-7.839995-1.899999-20.529987v-76.999948a87.449942 87.449942 0 0 1 1.899999-20.109987q1.899999-7.829995 6.349995-12.269992t12.059992-5.929996a105.25993 105.25993 0 0 1 19.469988-1.479999h107.929928q12.699992 0 20.529986 1.899999t12.279992 6.329996q4.439997 4.439997 5.929996 12.279991a105.99993 105.99993 0 0 1 1.479999 19.259988z m-32.169978-77.879948a7.119995 7.119995 0 0 0-2.329999-5.499996 7.669995 7.669995 0 0 0-5.289996-2.119999h-109.199928a7.189995 7.189995 0 0 0-4.869997 2.119999 7.089995 7.089995 0 0 0-2.329998 5.499996v78.299948a7.769995 7.769995 0 0 0 2.329998 5.709996 6.889995 6.889995 0 0 0 4.869997 2.329999H640.999574a6.659996 6.659996 0 0 0 5.079997-2.329999 8.199995 8.199995 0 0 0 2.119999-5.709996z" fill="#C0CBD9" p-id="1867"></path></svg>