<?xml version="1.0" standalone="no"?><!DOCTYPE svg PUBLIC "-//W3C//DTD SVG 1.1//EN" "http://www.w3.org/Graphics/SVG/1.1/DTD/svg11.dtd"><svg t="1566195983834" class="icon" viewBox="0 0 1097 1024" version="1.1" xmlns="http://www.w3.org/2000/svg" p-id="1849" xmlns:xlink="http://www.w3.org/1999/xlink" width="214.2578125" height="200"><defs><style type="text/css"></style></defs><path d="M1086.646857 327.570286a39.168 39.168 0 0 0-2.304-8.557715l-92.745143-238.957714C975.542857 30.500571 929.426286 0.109714 875.446857 0H224.548571C169.874286 0 127.378286 30.098286 111.981714 77.677714L12.288 321.499429a52.443429 52.443429 0 0 0-1.426286 5.741714A233.764571 233.764571 0 0 0 0 397.568c0.073143 83.382857 44.251429 159.524571 115.273143 198.692571l0.036571 0.073143 0.036572 0.036572 0.036571 0.036571c29.257143 16.128 63.634286 24.32 102.363429 24.32 64.914286-0.219429 125.037714-29.732571 166.034285-80.274286a213.723429 213.723429 0 0 0 165.229715 79.872c64.292571-0.548571 123.794286-29.988571 164.388571-80.054857a213.321143 213.321143 0 0 0 166.436572 79.908572c39.497143-0.182857 74.532571-8.777143 104.045714-25.526857 69.961143-39.570286 113.334857-115.419429 113.298286-197.924572a226.340571 226.340571 0 0 0-10.532572-69.156571z m-140.617143 195.181714c-17.92 10.166857-40.265143 15.36-66.267428 15.542857-48.201143 0-92.123429-25.307429-117.76-68.278857a65.206857 65.206857 0 0 0-10.532572-17.225143c-6.546286-7.570286-18.395429-16.530286-37.961143-16.530286-15.725714 0-30.025143 6.656-38.070857 16.896-5.339429 6.217143-8.301714 12.397714-10.386285 16.896-25.307429 42.422857-68.864 67.986286-116.077715 68.352-47.762286-0.292571-91.465143-25.746286-116.918857-68.498285-1.792-3.766857-4.754286-10.130286-9.398857-15.469715-18.578286-22.966857-60.196571-21.796571-76.434286-1.792a66.194286 66.194286 0 0 0-11.117714 18.212572c-25.563429 42.422857-69.485714 67.84-117.430857 68.022857-25.563429 0-47.469714-4.973714-65.097143-14.701714H152.502857c-45.275429-24.941714-73.398857-73.435429-73.435428-126.500572 0-15.689143 2.523429-31.488 7.606857-46.884571 0.365714-1.133714 0.658286-2.340571 0.950857-3.620572l98.194286-240.274285c2.011429-6.144 8.082286-24.868571 38.656-24.868572h651.081142c12.544 0.768 34.157714 3.072 41.801143 26.441143l91.940572 236.982857c0.365714 1.718857 0.804571 3.364571 1.206857 4.717715 5.12 15.433143 7.643429 31.122286 7.643428 46.665142 0.073143 52.48-27.574857 100.717714-72.118857 125.915429z m29.659429 131.437714c-21.869714 0-39.570286 18.285714-39.570286 40.923429l0.109714 223.451428a22.747429 22.747429 0 0 1-22.235428 23.04l-744.374857 0.475429a22.528 22.528 0 0 1-22.235429-22.820571l-0.256-219.574858c-0.036571-22.601143-17.773714-40.886857-39.570286-40.886857h-0.073142c-21.833143 0.036571-39.533714 18.395429-39.497143 41.033143l0.292571 219.465143C68.278857 977.042286 113.737143 1024 169.618286 1024l744.484571-0.475429c55.808-0.146286 101.229714-47.250286 101.229714-105.033142l-0.073142-223.378286c0-22.637714-17.737143-40.923429-39.570286-40.923429z m-117.540572-286.646857H225.170286c-21.833143 0-39.570286-18.358857-39.570286-40.96 0-22.601143 17.737143-40.96 39.570286-40.96h632.978285c21.869714 0 39.570286 18.358857 39.570286 40.96 0 22.601143-17.700571 40.96-39.570286 40.96z" p-id="1850" fill="#C0CBD9"></path></svg>