<?xml version="1.0" standalone="no"?><!DOCTYPE svg PUBLIC "-//W3C//DTD SVG 1.1//EN" "http://www.w3.org/Graphics/SVG/1.1/DTD/svg11.dtd"><svg t="1566195793558" class="icon" viewBox="0 0 1024 1024" version="1.1" xmlns="http://www.w3.org/2000/svg" p-id="2057" xmlns:xlink="http://www.w3.org/1999/xlink" width="200" height="200"><defs><style type="text/css"></style></defs><path d="M1023.168831 995.407792c-20.347013-240.108052-159.584416-436.130909-376.752208-493.581298a268.70026 268.70026 0 1 0-134.383376 36.238961c5.784935 0 11.37039-0.531948 17.022337-0.864416 245.494026 8.311688 405.61039 193.895065 436.995325 433.005714H58.547532C78.828052 820.795844 150.441558 689.737143 260.155844 612.538182A26.597403 26.597403 0 0 0 269.863896 591.792208a26.597403 26.597403 0 0 0-26.597402-26.597403 26.597403 26.597403 0 0 0-16.822858 6.649351C102.366753 663.006753 15.526234 823.455584 0.831169 997.402597a26.597403 26.597403 0 0 0 25.533506 26.597403h971.27065v-1.928312a26.597403 26.597403 0 0 0 25.533506-26.597402zM296.793766 269.032727a215.239481 215.239481 0 1 1 215.172987 215.239481 215.239481 215.239481 0 0 1-215.172987-215.239481z m0 0" p-id="2058" fill="#C0CBD9"></path><path d="M524.002078 867.141818v0.332468l1.529351-1.662338 73.874285-64.698182-38.898701-201.00987v-0.531948H463.492987l-38.034286 200.943377L499.532468 867.075325a17.554286 17.554286 0 0 0 23.937662 0.398961zM467.083636 784.623377l29.124156-153.6h31.717403l30.321039 154.996363-46.013507 34.776104z m0 0" p-id="2059" fill="#C0CBD9"></path></svg>