<?xml version="1.0" standalone="no"?><!DOCTYPE svg PUBLIC "-//W3C//DTD SVG 1.1//EN" "http://www.w3.org/Graphics/SVG/1.1/DTD/svg11.dtd"><svg t="1568011037789" class="icon" viewBox="0 0 1024 1024" version="1.1" xmlns="http://www.w3.org/2000/svg" p-id="2579" id="mx_n_1568011037791" xmlns:xlink="http://www.w3.org/1999/xlink" width="200" height="200"><defs><style type="text/css"></style></defs><path d="M298.60042 255.679952c23.597289 0 42.638919-19.04163 42.638919-42.536544V42.741293A42.587732 42.587732 0 0 0 256.012688 42.79248v170.248553c0 23.597289 19.092817 42.638919 42.638919 42.638919z m213.296969 0c23.546102 0 42.638919-19.04163 42.638919-42.536544V42.741293a42.587732 42.587732 0 1 0-85.277838 0v170.248553c0 23.597289 19.092817 42.638919 42.638919 42.638919z m-127.967944-173.831655h42.690106v92.751166H383.980632V81.848297z m213.348156 0h42.638919v92.751166h-42.638919V81.848297z m426.38919 123.105162a127.712008 127.712008 0 0 0-127.916757-127.712008h-85.277838v97.102076h72.890541c23.546102 0 42.79248 19.092817 42.79248 42.536545v670.040154a42.843668 42.843668 0 0 1-42.79248 42.638919H140.176105a42.741293 42.741293 0 0 1-42.638919-42.638919V216.982446c0-23.494915 19.144004-42.587732 42.638919-42.587732h73.09529V77.241451H127.993557A127.814382 127.814382 0 0 0 0.0768 205.004646v691.334021A127.712008 127.712008 0 0 0 127.993557 1023.999488h767.807664a127.456072 127.456072 0 0 0 127.353698-121.364798l0.511872-4.965156V205.004646z m-298.421246 50.675306c23.494915 0 42.587732-18.939256 42.587732-42.485357V42.741293a42.587732 42.587732 0 0 0-85.277838 0v170.248553c0 23.597289 18.939256 42.638919 42.638919 42.638919zM255.193693 426.645125h511.871776a42.741293 42.741293 0 0 0 42.638919-42.587731 42.690106 42.690106 0 0 0-42.638919-42.485358h-511.871776a42.536545 42.536545 0 1 0 0 85.021902z m511.871776 124.896714h-511.871776a42.587732 42.587732 0 1 0 0 85.124276h511.871776a42.741293 42.741293 0 0 0 42.638919-42.587732 42.741293 42.741293 0 0 0-42.638919-42.485357z m0 197.68488h-511.871776a42.587732 42.587732 0 1 0 0 85.073089h511.871776a42.79248 42.79248 0 0 0 42.638919-42.690106 42.638919 42.638919 0 0 0-42.638919-42.382983z" fill="#C0CBD9" p-id="2580"></path></svg>