<?xml version="1.0" standalone="no"?><!DOCTYPE svg PUBLIC "-//W3C//DTD SVG 1.1//EN" "http://www.w3.org/Graphics/SVG/1.1/DTD/svg11.dtd"><svg t="1566195287293" class="icon" viewBox="0 0 1462 1024" version="1.1" xmlns="http://www.w3.org/2000/svg" p-id="924" width="285.546875" height="200" xmlns:xlink="http://www.w3.org/1999/xlink"><defs><style type="text/css"></style></defs><path d="M1066.749328 292.589713h-115.960752a73.147428 73.147428 0 0 1 0-146.294856h292.525717a73.147428 73.147428 0 0 1 73.147428 73.147428V512.031998a73.147428 73.147428 0 0 1-146.294856 0V396.071246l-240.816949 240.816948a73.147428 73.147428 0 0 1-103.417537 0l-167.66952-167.66952-240.880945 240.816949a73.147428 73.147428 0 0 1-103.417537-103.417537l292.525717-292.525717a73.147428 73.147428 0 0 1 103.417537 0l167.66952 167.669521z m322.859821 585.11543a73.147428 73.147428 0 1 1 0 146.294857H219.058309A219.698269 219.698269 0 0 1 0 803.981751V73.211424a73.147428 73.147428 0 0 1 146.294857 0v730.770327a73.403412 73.403412 0 0 0 72.763452 73.787388z" fill="#C0CBD9" p-id="925"></path></svg>