<?xml version="1.0" standalone="no"?><!DOCTYPE svg PUBLIC "-//W3C//DTD SVG 1.1//EN" "http://www.w3.org/Graphics/SVG/1.1/DTD/svg11.dtd"><svg t="1575531989577" class="icon" viewBox="0 0 1024 1024" version="1.1" xmlns="http://www.w3.org/2000/svg" p-id="2082" xmlns:xlink="http://www.w3.org/1999/xlink" width="200" height="200"><defs><style type="text/css"></style></defs><path d="M730.567111 303.217778h-110.592a38.343111 38.343111 0 0 1 0-76.686222h199.907556c21.162667 0 38.343111 17.180444 38.343111 38.343111v192.910222a38.343111 38.343111 0 1 1-76.686222 0V360.448l-243.143112 215.779556a38.343111 38.343111 0 0 1-45.795555 3.811555L355.328 493.966222 224.597333 579.697778a38.343111 38.343111 0 0 1-42.040889-64.113778L333.937778 416.426667a38.343111 38.343111 0 0 1 41.358222-0.398223l133.745778 83.854223 221.582222-196.664889zM89.429333 0h844.572445c49.379556 0 89.372444 40.049778 89.372444 89.429333v839.736889c0 49.436444-39.992889 89.429333-89.372444 89.429334H89.429333A89.429333 89.429333 0 0 1 0 929.166222V89.486222A89.429333 89.429333 0 0 1 89.429333 0z m0 76.686222a12.743111 12.743111 0 0 0-12.8 12.743111v839.736889c0 7.054222 5.745778 12.8 12.8 12.8h844.572445c7.054222 0 12.743111-5.688889 12.743111-12.8V89.486222a12.743111 12.743111 0 0 0-12.743111-12.856889H89.429333v0.056889zM295.822222 788.138667a38.343111 38.343111 0 1 1 0-76.686223h434.858667a38.343111 38.343111 0 0 1 0 76.686223H295.822222z" p-id="2083"></path></svg>