<?xml version="1.0" standalone="no"?><!DOCTYPE svg PUBLIC "-//W3C//DTD SVG 1.1//EN" "http://www.w3.org/Graphics/SVG/1.1/DTD/svg11.dtd"><svg t="1576146785493" class="icon" viewBox="0 0 1024 1024" version="1.1" xmlns="http://www.w3.org/2000/svg" p-id="5766" xmlns:xlink="http://www.w3.org/1999/xlink" width="16" height="16"><defs><style type="text/css"></style></defs><path d="M514.267429 57.490286A456.265143 456.265143 0 0 0 58.514286 513.243429a456.338286 456.338286 0 0 0 455.753143 455.899428 456.265143 456.265143 0 0 0 455.753142-455.753143A456.411429 456.411429 0 0 0 514.340571 57.490286z m92.598857 517.266285a46.445714 46.445714 0 0 1-46.518857 46.518858H336.310857c-33.206857 0-62.464-24.576-65.828571-57.782858a64.292571 64.292571 0 0 1 63.780571-70.436571h144.384V350.646857c0-33.28 24.576-62.537143 57.709714-65.828571 38.034286-3.803429 70.509714 26.331429 70.509715 63.780571v226.157714z" p-id="5767"></path></svg>