<?xml version="1.0" standalone="no"?><!DOCTYPE svg PUBLIC "-//W3C//DTD SVG 1.1//EN" "http://www.w3.org/Graphics/SVG/1.1/DTD/svg11.dtd"><svg t="1566195603272" class="icon" viewBox="0 0 1024 1024" version="1.1" xmlns="http://www.w3.org/2000/svg" p-id="1219" xmlns:xlink="http://www.w3.org/1999/xlink" width="200" height="200"><defs><style type="text/css"></style></defs><path d="M66.782609 512c0 245.871304 199.323826 445.217391 445.217391 445.217391 245.871304 0 445.217391-199.346087 445.217391-445.217391 0-245.893565-199.346087-445.217391-445.217391-445.217391C266.106435 66.782609 66.782609 266.106435 66.782609 512z m-66.782609 0C0 229.220174 229.220174 0 512 0c282.757565 0 512 229.220174 512 512 0 282.757565-229.242435 512-512 512C229.220174 1024 0 794.757565 0 512z" p-id="1220" fill="#C0CBD9"></path><path d="M467.478261 512h-179.511652a33.391304 33.391304 0 1 1 0-66.782609h145.541565l-152.954435-157.829565a33.391304 33.391304 0 1 1 47.949913-46.458435l181.715478 187.481044 182.561392-188.371478a33.391304 33.391304 0 1 1 47.949913 46.480695L586.907826 445.217391h137.794783a33.391304 33.391304 0 0 1 0 66.782609H534.26087v66.782609h190.419478a33.391304 33.391304 0 0 1 0 66.782608H534.26087v168.96a33.391304 33.391304 0 0 1-66.782609 0V645.565217h-179.511652a33.391304 33.391304 0 1 1 0-66.782608H467.478261v-66.782609z" p-id="1221" fill="#C0CBD9"></path></svg>